<svg width="16" height="16" viewBox="0 0 16 16" fill="none" xmlns="http://www.w3.org/2000/svg">
<path fill-rule="evenodd" clip-rule="evenodd" d="M7 2.20709C7 1.76163 6.46143 1.53855 6.14645 1.85353L5 2.99998L3 0.999979L1 2.99998L3 4.99998L1.85355 6.14643C1.53857 6.46141 1.76165 6.99998 2.20711 6.99998L7 6.99998V2.20709ZM9 13.7929C9 14.2383 9.53857 14.4614 9.85355 14.1464L11 13L13 15L15 13L13 11L14.1464 9.85353C14.4614 9.53855 14.2383 8.99998 13.7929 8.99998L9 8.99998L9 13.7929ZM14.1464 6.14642C14.4614 6.46141 14.2383 6.99998 13.7929 6.99998H9V2.20709C9 1.76163 9.53857 1.53855 9.85356 1.85353L11 2.99998L13 0.999979L15 2.99998L13 4.99998L14.1464 6.14642ZM2.20711 8.99998C1.76165 8.99998 1.53857 9.53855 1.85355 9.85353L3 11L1 13L3 15L5 13L6.14645 14.1464C6.46143 14.4614 7 14.2383 7 13.7929L7 8.99998L2.20711 8.99998Z" fill="white"/>
</svg>
