<svg width="16" height="16" viewBox="0 0 16 16" fill="none" xmlns="http://www.w3.org/2000/svg">
<path fill-rule="evenodd" clip-rule="evenodd" d="M3.56334 1.56591L11.7882 7.17377C11.8704 7.22982 11.941 7.29507 12 7.36693V2.5C12 2.22386 12.2239 2 12.5 2H13.5C13.7761 2 14 2.22386 14 2.5V13.5C14 13.7761 13.7761 14 13.5 14H12.5C12.2239 14 12 13.7761 12 13.5V8.63307C11.941 8.70492 11.8704 8.77017 11.7882 8.82622L3.56334 14.4341C2.89953 14.8867 2 14.4113 2 13.6079V2.39214C2 1.58871 2.89953 1.11331 3.56334 1.56591Z" fill="white"/>
</svg>
