<svg width="16" height="16" viewBox="0 0 16 16" fill="none" xmlns="http://www.w3.org/2000/svg">
<path fill-rule="evenodd" clip-rule="evenodd" d="M8.99988 0C9.55216 0 9.99988 0.447715 9.99988 1V2.34144C10.7021 2.58964 11.3443 2.96485 11.8989 3.43945L13.062 2.76793C13.5403 2.49179 14.1519 2.65567 14.428 3.13396L15.428 4.86601C15.7041 5.3443 15.5403 5.95589 15.062 6.23204L13.8997 6.90304C13.9655 7.25869 13.9998 7.62534 13.9998 8C13.9998 8.37464 13.9655 8.74126 13.8998 9.09688L15.0619 9.76785C15.5402 10.044 15.7041 10.6556 15.4279 11.1339L14.4279 12.8659C14.1518 13.3442 13.5402 13.5081 13.0619 13.2319L11.8989 12.5605C11.3443 13.0351 10.7021 13.4104 9.99987 13.6586V14.9999C9.99987 15.5522 9.55216 15.9999 8.99987 15.9999H6.99987C6.44759 15.9999 5.99987 15.5522 5.99987 14.9999V13.6586C5.29761 13.4104 4.65535 13.0352 4.1007 12.5605L2.93767 13.232C2.45937 13.5081 1.84778 13.3443 1.57164 12.866L0.571642 11.1339C0.295499 10.6556 0.459374 10.044 0.937667 9.7679L2.09983 9.09693C2.03413 8.74129 1.99979 8.37465 1.99979 8C1.99979 7.62534 2.03413 7.25869 2.09984 6.90304L0.937714 6.23209C0.459422 5.95595 0.295547 5.34436 0.571689 4.86607L1.57169 3.13402C1.84783 2.65572 2.45942 2.49185 2.93771 2.76799L4.10072 3.43945C4.65537 2.96481 5.29762 2.58958 5.99988 2.34138V1C5.99988 0.447715 6.44759 0 6.99988 0H8.99988ZM7.99979 11C9.65665 11 10.9998 9.65685 10.9998 8C10.9998 6.34315 9.65665 5 7.99979 5C6.34294 5 4.99979 6.34315 4.99979 8C4.99979 9.65685 6.34294 11 7.99979 11Z" fill="white"/>
</svg>
