<svg width="16" height="16" viewBox="0 0 16 16" fill="none" xmlns="http://www.w3.org/2000/svg">
<path fill-rule="evenodd" clip-rule="evenodd" d="M12.4367 1.56591L4.2118 7.17377C4.12959 7.22982 4.05899 7.29507 4 7.36693V2.5C4 2.22386 3.77614 2 3.5 2H2.5C2.22386 2 2 2.22386 2 2.5V13.5C2 13.7761 2.22386 14 2.5 14H3.5C3.77614 14 4 13.7761 4 13.5V8.63307C4.05899 8.70492 4.12959 8.77017 4.2118 8.82622L12.4367 14.4341C13.1005 14.8867 14 14.4113 14 13.6079V2.39214C14 1.58871 13.1005 1.11331 12.4367 1.56591Z" fill="white"/>
</svg>
