<svg width="16" height="16" viewBox="0 0 16 16" fill="none" xmlns="http://www.w3.org/2000/svg">
<path fill-rule="evenodd" clip-rule="evenodd" d="M1 5.79289C1 6.23835 1.53857 6.46143 1.85355 6.14645L3 5L5 7L7 5L5 3L6.14645 1.85355C6.46143 1.53857 6.23835 1 5.79289 1H1V5.79289ZM15 10.2071C15 9.76165 14.4614 9.53857 14.1464 9.85355L13 11L11 9L9 11L11 13L9.85355 14.1464C9.53857 14.4614 9.76165 15 10.2071 15H15V10.2071ZM9.85355 1.85355C9.53857 1.53857 9.76166 1 10.2071 1H15L15 5.79289C15 6.23835 14.4614 6.46143 14.1464 6.14645L13 5L11 7L9 5L11 3L9.85355 1.85355ZM5.79289 15C6.23835 15 6.46143 14.4614 6.14645 14.1464L5 13L7 11L5 9L3 11L1.85355 9.85355C1.53857 9.53857 1 9.76165 1 10.2071V15H5.79289Z" fill="white"/>
</svg>
